<svg xmlns="http://www.w3.org/2000/svg" xmlns:xlink="http://www.w3.org/1999/xlink" width="939.916" height="94.93" viewBox="0 0 939.916 94.93">
  <defs>
    <clipPath id="clip-path">
      <rect id="Rectangle_867" data-name="Rectangle 867" width="13.099" height="58.224" fill="none"/>
    </clipPath>
  </defs>
  <g id="Group_1048" data-name="Group 1048" transform="translate(-541.084 -2456.495)">
    <rect id="Rectangle_872" data-name="Rectangle 872" width="887.823" height="58.573" rx="29.287" transform="translate(593.177 2474.673)" fill="#228a78"/>
    <g id="Group_1045" data-name="Group 1045" transform="translate(541.084 2456.495)">
      <g id="Group_1047" data-name="Group 1047" transform="translate(0 0)">
        <g id="Group_1043" data-name="Group 1043" transform="translate(0 0)">
          <g id="Group_1046" data-name="Group 1046">
            <path id="Path_2518" data-name="Path 2518" d="M94.93,47.469a47.461,47.461,0,1,1-9.974-29.112A47.262,47.262,0,0,1,94.93,47.469" transform="translate(0 -0.004)" fill="#c8e9e6"/>
            <path id="Path_2519" data-name="Path 2519" d="M435.666,422.759H420.778a2.548,2.548,0,0,1-2.546-2.546v-2.153a16.162,16.162,0,0,0-4.394-11.035,19.655,19.655,0,1,1,28.759.009,16.133,16.133,0,0,0-4.386,11.026v2.153a2.549,2.549,0,0,1-2.546,2.546m-14.829-2.6h14.77v-2.094a18.729,18.729,0,0,1,5.086-12.8,16.977,16.977,0,0,0,4.579-11.8,17.151,17.151,0,0,0-16.8-16.871,17.049,17.049,0,0,0-12.732,28.666,18.758,18.758,0,0,1,5.093,12.81Z" transform="translate(-380.262 -348.07)" fill="#100c00"/>
            <path id="Path_2520" data-name="Path 2520" d="M574.6,1090.924H559.639a1.3,1.3,0,0,1,0-2.6H574.6a1.3,1.3,0,1,1,0,2.6" transform="translate(-519.656 -1012.922)" fill="#047e75"/>
            <path id="Path_2521" data-name="Path 2521" d="M586.314,1142.364H573.233a1.3,1.3,0,0,1,0-2.6h13.081a1.3,1.3,0,0,1,0,2.6" transform="translate(-532.308 -1060.798)" fill="#047e75"/>
            <path id="Path_2522" data-name="Path 2522" d="M596,1193.8H584.482a1.3,1.3,0,0,1,0-2.6H596a1.3,1.3,0,0,1,0,2.6" transform="translate(-542.778 -1108.675)" fill="#047e75"/>
            <path id="Path_2523" data-name="Path 2523" d="M674.782,198.431a1.3,1.3,0,0,1-1.3-1.3v-6.537a1.3,1.3,0,0,1,2.6,0v6.537a1.3,1.3,0,0,1-1.3,1.3" transform="translate(-626.822 -176.176)" fill="#100c00"/>
            <path id="Path_2524" data-name="Path 2524" d="M457.894,252.714a1.3,1.3,0,0,1-1.129-.651L453.5,246.4a1.3,1.3,0,0,1,2.256-1.3l3.269,5.661a1.3,1.3,0,0,1-1.127,1.954" transform="translate(-421.916 -227.513)" fill="#100c00"/>
            <path id="Path_2525" data-name="Path 2525" d="M297.205,408.172a1.3,1.3,0,0,1-.65-.175l-5.661-3.269a1.3,1.3,0,0,1,1.3-2.256l5.661,3.269a1.3,1.3,0,0,1-.652,2.43" transform="translate(-270.135 -374.428)" fill="#100c00"/>
            <path id="Path_2526" data-name="Path 2526" d="M235.78,623.146h-6.537a1.3,1.3,0,0,1,0-2.6h6.537a1.3,1.3,0,0,1,0,2.6" transform="translate(-212.15 -577.551)" fill="#100c00"/>
            <path id="Path_2527" data-name="Path 2527" d="M1018.211,637.434h-6.537a1.3,1.3,0,0,1,0-2.6h6.537a1.3,1.3,0,1,1,0,2.6" transform="translate(-940.375 -590.849)" fill="#100c00"/>
            <path id="Path_2528" data-name="Path 2528" d="M969.152,420.546a1.3,1.3,0,0,1-.652-2.43l5.661-3.269a1.3,1.3,0,0,1,1.3,2.256l-5.661,3.269a1.3,1.3,0,0,1-.65.175" transform="translate(-900.797 -385.945)" fill="#100c00"/>
            <path id="Path_2529" data-name="Path 2529" d="M845.837,259.859a1.3,1.3,0,0,1-1.127-1.954l3.269-5.661a1.3,1.3,0,0,1,2.256,1.3l-3.269,5.661a1.3,1.3,0,0,1-1.129.651" transform="translate(-786.028 -234.163)" fill="#100c00"/>
            <g id="Group_1041" data-name="Group 1041" transform="translate(84.045 18.353)" opacity="0.38" style="mix-blend-mode: multiply;isolation: isolate">
              <g id="Group_1040" data-name="Group 1040">
                <g id="Group_1039" data-name="Group 1039" clip-path="url(#clip-path)">
                  <path id="Path_2531" data-name="Path 2531" d="M1226.238,294.03a49.839,49.839,0,0,1-9.329,29.112h-3.77a47.473,47.473,0,0,0,0-58.225h3.77a49.847,49.847,0,0,1,9.329,29.112" transform="translate(-1213.138 -264.918)" fill="#414042"/>
                </g>
              </g>
            </g>
          </g>
        </g>
      </g>
    </g>
    <path id="Path_2533" data-name="Path 2533" d="M435.666,422.759H420.778a2.548,2.548,0,0,1-2.546-2.546v-2.153a16.162,16.162,0,0,0-4.394-11.035,19.655,19.655,0,1,1,28.759.009,16.133,16.133,0,0,0-4.386,11.026v2.153a2.549,2.549,0,0,1-2.546,2.546m-14.829-2.6h14.77v-2.094a18.729,18.729,0,0,1,5.086-12.8,16.977,16.977,0,0,0,4.579-11.8,17.151,17.151,0,0,0-16.8-16.871,17.049,17.049,0,0,0-12.732,28.666,18.758,18.758,0,0,1,5.093,12.81Z" transform="translate(160.822 2108.425)" fill="#047e75"/>
    <path id="Path_2534" data-name="Path 2534" d="M674.782,198.431a1.3,1.3,0,0,1-1.3-1.3v-6.537a1.3,1.3,0,0,1,2.6,0v6.537a1.3,1.3,0,0,1-1.3,1.3" transform="translate(-85.738 2280.319)" fill="#047e75"/>
    <path id="Path_2535" data-name="Path 2535" d="M457.894,252.714a1.3,1.3,0,0,1-1.129-.651L453.5,246.4a1.3,1.3,0,0,1,2.256-1.3l3.269,5.661a1.3,1.3,0,0,1-1.127,1.954" transform="translate(119.168 2228.982)" fill="#047e75"/>
    <path id="Path_2536" data-name="Path 2536" d="M297.205,408.172a1.3,1.3,0,0,1-.65-.175l-5.661-3.269a1.3,1.3,0,0,1,1.3-2.256l5.661,3.269a1.3,1.3,0,0,1-.652,2.43" transform="translate(270.949 2082.066)" fill="#047e75"/>
    <path id="Path_2537" data-name="Path 2537" d="M235.78,623.146h-6.537a1.3,1.3,0,0,1,0-2.6h6.537a1.3,1.3,0,0,1,0,2.6" transform="translate(328.935 1878.944)" fill="#047e75"/>
    <path id="Path_2538" data-name="Path 2538" d="M1018.211,637.434h-6.537a1.3,1.3,0,0,1,0-2.6h6.537a1.3,1.3,0,1,1,0,2.6" transform="translate(-399.291 1865.646)" fill="#047e75"/>
    <path id="Path_2539" data-name="Path 2539" d="M969.152,420.546a1.3,1.3,0,0,1-.652-2.43l5.661-3.269a1.3,1.3,0,0,1,1.3,2.256l-5.661,3.269a1.3,1.3,0,0,1-.65.175" transform="translate(-359.712 2070.55)" fill="#047e75"/>
    <path id="Path_2540" data-name="Path 2540" d="M845.837,259.859a1.3,1.3,0,0,1-1.127-1.954l3.269-5.661a1.3,1.3,0,0,1,2.256,1.3l-3.269,5.661a1.3,1.3,0,0,1-1.129.651" transform="translate(-244.944 2222.331)" fill="#047e75"/>
  </g>
</svg>
