<?xml version="1.0" encoding="utf-8"?>
<!-- Generator: Adobe Illustrator 26.0.1, SVG Export Plug-In . SVG Version: 6.00 Build 0)  -->
<svg version="1.1" id="Layer_1" xmlns="http://www.w3.org/2000/svg" xmlns:xlink="http://www.w3.org/1999/xlink" x="0px" y="0px"
	 viewBox="0 0 500.9 291.1" style="enable-background:new 0 0 500.9 291.1;" xml:space="preserve">
<style type="text/css">
	.st0{fill:#2D2D2D;}
	.st1{fill:#1C9A8B;}
</style>
<g>
	<g>
		<g>
			<path class="st0" d="M227.1,94.6V49.9h27.2v4.5h-22.8v14.1h18.8v4.5h-18.8v17.3h24.3v4.5H227.1z"/>
			<path class="st0" d="M261.8,94.6V46.7h4.5v47.9H261.8z"/>
			<path class="st0" d="M287.8,95.5c-2.9,0-5.6-0.8-8-2.3c-2.4-1.5-4.3-3.5-5.8-6.1c-1.4-2.5-2.2-5.4-2.2-8.5c0-2.3,0.4-4.5,1.2-6.6
				c0.8-2,2-3.8,3.4-5.4c1.5-1.5,3.2-2.8,5.1-3.6c1.9-0.9,4-1.3,6.2-1.3c2.4,0,4.5,0.5,6.5,1.4c2,0.9,3.7,2.2,5.1,3.9
				c1.4,1.7,2.5,3.7,3.3,5.9c0.7,2.3,1,4.7,0.9,7.3h-27.1c0.3,2,0.9,3.8,1.9,5.4c1,1.6,2.4,2.9,4,3.8c1.6,0.9,3.4,1.4,5.4,1.4
				c2.1,0,4.1-0.6,5.8-1.7c1.7-1.1,3.1-2.6,4.1-4.6l4.5,1.1c-1.3,2.8-3.2,5.2-5.8,7C293.8,94.6,291,95.5,287.8,95.5z M276.4,76.7
				h22.7c-0.1-2-0.8-3.8-1.8-5.4c-1.1-1.7-2.4-3-4.1-4c-1.7-1-3.5-1.5-5.5-1.5c-2,0-3.8,0.5-5.4,1.5c-1.6,1-3,2.3-4,3.9
				C277.3,72.9,276.6,74.7,276.4,76.7z"/>
			<path class="st0" d="M331.6,86.6l4,2.2c-1.4,2-3.3,3.6-5.5,4.9c-2.2,1.2-4.6,1.8-7.2,1.8c-2.9,0-5.6-0.8-8-2.3
				c-2.4-1.5-4.3-3.5-5.8-6.1c-1.4-2.5-2.2-5.4-2.2-8.5c0-2.3,0.4-4.5,1.2-6.6c0.8-2,2-3.8,3.4-5.4c1.5-1.5,3.2-2.8,5.1-3.6
				c1.9-0.9,4-1.3,6.2-1.3c2.6,0,5,0.6,7.2,1.8c2.2,1.2,4.1,2.8,5.5,4.9l-4,2.1c-1.1-1.4-2.4-2.5-4-3.2c-1.6-0.8-3.1-1.1-4.8-1.1
				c-2.2,0-4.1,0.6-5.8,1.7c-1.7,1.1-3.1,2.6-4.1,4.5c-1,1.9-1.5,3.9-1.5,6.2s0.5,4.3,1.6,6.2c1,1.9,2.4,3.4,4.2,4.5
				c1.7,1.1,3.7,1.7,5.8,1.7c1.7,0,3.4-0.4,4.9-1.2C329.3,89,330.5,87.9,331.6,86.6z"/>
			<path class="st0" d="M363.8,67.2H350l0,27.5h-4.5l0-27.5h-5.8v-4.5h5.8l0-10h4.5l0,10h13.8V67.2z"/>
			<path class="st0" d="M365.4,57.1c-0.7,0-1.3-0.2-1.8-0.7c-0.5-0.5-0.8-1.1-0.8-1.8c0-0.7,0.3-1.3,0.8-1.8
				c0.5-0.5,1.1-0.7,1.8-0.7c0.7,0,1.3,0.2,1.8,0.7c0.5,0.5,0.8,1.1,0.8,1.8c0,0.7-0.2,1.3-0.7,1.8
				C366.7,56.9,366.1,57.1,365.4,57.1z M363.1,62.7h4.5v32h-4.5V62.7z"/>
			<path class="st0" d="M389,95.5c-2.9,0-5.6-0.8-8-2.3c-2.4-1.5-4.3-3.5-5.8-6.1c-1.4-2.5-2.2-5.4-2.2-8.5c0-2.3,0.4-4.5,1.2-6.6
				c0.8-2,2-3.8,3.4-5.4c1.5-1.5,3.2-2.8,5.1-3.6c1.9-0.9,4-1.3,6.2-1.3c2.9,0,5.6,0.8,8,2.3c2.4,1.5,4.3,3.5,5.8,6.1
				c1.4,2.6,2.2,5.4,2.2,8.5c0,2.3-0.4,4.5-1.2,6.5c-0.8,2-2,3.8-3.4,5.4c-1.5,1.5-3.2,2.8-5.1,3.6C393.3,95,391.2,95.5,389,95.5z
				 M389,91c2.2,0,4.1-0.6,5.9-1.7c1.7-1.1,3.1-2.6,4.1-4.5c1-1.9,1.5-3.9,1.5-6.1c0-2.2-0.5-4.3-1.5-6.2s-2.4-3.4-4.1-4.5
				c-1.7-1.1-3.7-1.7-5.8-1.7c-2.2,0-4.1,0.6-5.9,1.7c-1.7,1.1-3.1,2.6-4.1,4.5c-1,1.9-1.5,3.9-1.5,6.2c0,2.3,0.5,4.4,1.6,6.2
				c1,1.9,2.4,3.3,4.2,4.4C385,90.5,386.9,91,389,91z"/>
			<path class="st0" d="M438.3,74.9v19.8h-4.5V75.8c0-1.7-0.4-3.3-1.3-4.8c-0.9-1.4-2-2.6-3.4-3.4c-1.4-0.9-3-1.3-4.8-1.3
				c-1.7,0-3.3,0.4-4.7,1.3c-1.4,0.9-2.6,2-3.4,3.4c-0.9,1.4-1.3,3-1.3,4.8v18.9h-4.5v-32h4.5v4.4c1.1-1.6,2.6-2.9,4.4-3.9
				c1.8-1,3.8-1.4,5.9-1.4c2.4,0,4.6,0.6,6.6,1.8c2,1.2,3.6,2.7,4.7,4.7C437.7,70.3,438.3,72.5,438.3,74.9z"/>
			<path class="st0" d="M241,171.3l-16.2-44.7h4.7l14.2,39.1l14.3-39.1h4.7l-16.3,44.7H241z"/>
			<path class="st0" d="M268,133.8c-0.7,0-1.3-0.2-1.8-0.7c-0.5-0.5-0.8-1.1-0.8-1.8c0-0.7,0.3-1.3,0.8-1.8c0.5-0.5,1.1-0.7,1.8-0.7
				c0.7,0,1.3,0.2,1.8,0.7c0.5,0.5,0.8,1.1,0.8,1.8c0,0.7-0.2,1.3-0.7,1.8C269.4,133.6,268.8,133.8,268,133.8z M265.8,139.4h4.5v32
				h-4.5V139.4z"/>
			<path class="st0" d="M291.7,172.2c-2.9,0-5.6-0.8-8-2.3c-2.4-1.5-4.3-3.5-5.8-6.1c-1.4-2.5-2.2-5.4-2.2-8.5
				c0-2.3,0.4-4.5,1.2-6.6c0.8-2,2-3.8,3.4-5.4c1.5-1.5,3.2-2.8,5.1-3.6c1.9-0.9,4-1.3,6.2-1.3c2.9,0,5.6,0.8,8,2.3
				c2.4,1.5,4.3,3.5,5.8,6.1c1.4,2.6,2.2,5.4,2.2,8.5c0,2.3-0.4,4.5-1.2,6.5c-0.8,2-2,3.8-3.4,5.4c-1.5,1.5-3.2,2.8-5.1,3.6
				C295.9,171.7,293.9,172.2,291.7,172.2z M291.7,167.7c2.2,0,4.1-0.6,5.9-1.7c1.7-1.1,3.1-2.6,4.1-4.5s1.5-3.9,1.5-6.1
				c0-2.2-0.5-4.3-1.5-6.2c-1-1.9-2.4-3.4-4.1-4.5c-1.7-1.1-3.7-1.7-5.8-1.7c-2.2,0-4.1,0.6-5.9,1.7c-1.7,1.1-3.1,2.6-4.1,4.5
				c-1,1.9-1.5,3.9-1.5,6.2c0,2.3,0.5,4.4,1.6,6.2c1,1.9,2.4,3.3,4.2,4.4C287.7,167.2,289.6,167.7,291.7,167.7z"/>
			<path class="st0" d="M312.8,171.3v-47.9h4.5v47.9H312.8z"/>
			<path class="st0" d="M338.8,172.2c-2.9,0-5.6-0.8-8-2.3c-2.4-1.5-4.3-3.5-5.8-6.1c-1.4-2.5-2.2-5.4-2.2-8.5
				c0-2.3,0.4-4.5,1.2-6.6c0.8-2,2-3.8,3.4-5.4c1.5-1.5,3.2-2.8,5.1-3.6c1.9-0.9,4-1.3,6.2-1.3c2.4,0,4.5,0.5,6.5,1.4
				c2,0.9,3.7,2.2,5.1,3.9c1.4,1.7,2.5,3.7,3.3,5.9c0.7,2.3,1,4.7,0.9,7.3h-27.1c0.3,2,0.9,3.8,1.9,5.4c1,1.6,2.4,2.9,4,3.8
				c1.6,0.9,3.4,1.4,5.4,1.4c2.1,0,4.1-0.6,5.8-1.7c1.7-1.1,3.1-2.6,4.1-4.6l4.5,1.1c-1.3,2.8-3.2,5.2-5.8,7
				C344.9,171.3,342,172.2,338.8,172.2z M327.5,153.4h22.7c-0.1-2-0.8-3.8-1.8-5.4c-1.1-1.6-2.4-3-4.1-4c-1.7-1-3.5-1.5-5.5-1.5
				c-2,0-3.8,0.5-5.4,1.5c-1.6,1-3,2.3-4,3.9C328.3,149.6,327.7,151.4,327.5,153.4z"/>
			<path class="st0" d="M388,151.6v19.8h-4.5v-18.9c0-1.7-0.4-3.3-1.3-4.8c-0.9-1.4-2-2.6-3.4-3.4c-1.4-0.9-3-1.3-4.8-1.3
				c-1.7,0-3.3,0.4-4.7,1.3c-1.4,0.9-2.6,2-3.4,3.4c-0.9,1.4-1.3,3-1.3,4.8v18.9h-4.5v-32h4.5v4.4c1.1-1.6,2.6-2.9,4.4-3.9
				c1.8-1,3.8-1.4,5.9-1.4c2.4,0,4.6,0.6,6.6,1.8c2,1.2,3.6,2.7,4.7,4.7C387.4,147,388,149.2,388,151.6z"/>
			<path class="st0" d="M416.6,163.3l4,2.2c-1.4,2-3.3,3.6-5.5,4.9c-2.2,1.2-4.6,1.8-7.2,1.8c-2.9,0-5.6-0.8-8-2.3
				c-2.4-1.5-4.3-3.5-5.8-6.1c-1.4-2.5-2.2-5.4-2.2-8.5c0-2.3,0.4-4.5,1.2-6.6c0.8-2,2-3.8,3.4-5.4c1.5-1.5,3.2-2.8,5.1-3.6
				c1.9-0.9,4-1.3,6.2-1.3c2.6,0,5,0.6,7.2,1.8c2.2,1.2,4.1,2.8,5.5,4.9l-4,2.1c-1.1-1.4-2.4-2.5-4-3.2c-1.6-0.8-3.1-1.1-4.8-1.1
				c-2.2,0-4.1,0.6-5.8,1.7c-1.7,1.1-3.1,2.6-4.1,4.5c-1,1.9-1.5,3.9-1.5,6.2c0,2.2,0.5,4.3,1.6,6.2c1,1.9,2.4,3.4,4.2,4.5
				c1.7,1.1,3.7,1.7,5.8,1.7c1.7,0,3.4-0.4,4.9-1.2C414.3,165.7,415.6,164.6,416.6,163.3z"/>
			<path class="st0" d="M440,172.2c-2.9,0-5.6-0.8-8-2.3c-2.4-1.5-4.3-3.5-5.8-6.1c-1.4-2.5-2.2-5.4-2.2-8.5c0-2.3,0.4-4.5,1.2-6.6
				c0.8-2,2-3.8,3.4-5.4c1.5-1.5,3.2-2.8,5.1-3.6c1.9-0.9,4-1.3,6.2-1.3c2.4,0,4.5,0.5,6.5,1.4c2,0.9,3.7,2.2,5.1,3.9
				c1.4,1.7,2.5,3.7,3.3,5.9c0.7,2.3,1,4.7,0.9,7.3h-27.1c0.3,2,0.9,3.8,1.9,5.4c1,1.6,2.4,2.9,4,3.8c1.6,0.9,3.4,1.4,5.4,1.4
				c2.1,0,4.1-0.6,5.8-1.7c1.7-1.1,3.1-2.6,4.1-4.6l4.5,1.1c-1.3,2.8-3.2,5.2-5.8,7C446.1,171.3,443.2,172.2,440,172.2z
				 M428.6,153.4h22.7c-0.1-2-0.8-3.8-1.8-5.4c-1.1-1.6-2.4-3-4.1-4c-1.7-1-3.5-1.5-5.5-1.5c-2,0-3.8,0.5-5.4,1.5
				c-1.6,1-3,2.3-4,3.9C429.5,149.6,428.8,151.4,428.6,153.4z"/>
			<path class="st0" d="M260.9,203.3v4.5h-15.3V248h-4.5v-40.3h-15.3v-4.5H260.9z"/>
			<path class="st0" d="M261.9,248v-32h4.5v4.4c1.1-1.6,2.6-2.9,4.4-3.9c1.8-1,3.8-1.4,5.9-1.4c1.2,0,2.4,0.2,3.6,0.5l-1.8,4.4
				c-0.9-0.3-1.8-0.4-2.6-0.4c-1.7,0-3.3,0.4-4.7,1.3c-1.4,0.9-2.6,2-3.4,3.4c-0.9,1.4-1.3,3-1.3,4.8V248H261.9z"/>
			<path class="st0" d="M308.9,216.1h4.5v32h-4.5l-0.2-5.9c-1,2-2.5,3.7-4.4,4.9c-1.9,1.2-4.1,1.9-6.7,1.9c-2.3,0-4.5-0.4-6.6-1.3
				c-2-0.9-3.8-2.1-5.4-3.7c-1.6-1.6-2.8-3.4-3.6-5.4c-0.9-2-1.3-4.2-1.3-6.6c0-2.3,0.4-4.5,1.3-6.5c0.9-2,2.1-3.8,3.6-5.3
				c1.5-1.5,3.3-2.7,5.3-3.6c2-0.9,4.2-1.3,6.5-1.3c2.7,0,5,0.6,7,1.9c2,1.3,3.6,2.9,4.7,5L308.9,216.1z M297.5,244.5
				c2.3,0,4.2-0.6,5.9-1.7c1.6-1.1,2.9-2.6,3.8-4.5c0.9-1.9,1.3-4,1.3-6.3c0-2.3-0.4-4.5-1.3-6.3c-0.9-1.9-2.2-3.4-3.8-4.5
				c-1.6-1.1-3.6-1.7-5.8-1.7s-4.3,0.6-6.2,1.7c-1.9,1.1-3.3,2.6-4.4,4.5c-1.1,1.9-1.6,4-1.6,6.3c0,2.3,0.6,4.4,1.7,6.3
				c1.1,1.9,2.6,3.4,4.5,4.5C293.3,244,295.3,244.5,297.5,244.5z"/>
			<path class="st0" d="M341.9,240l4,2.2c-1.4,2-3.3,3.6-5.5,4.9c-2.2,1.2-4.6,1.8-7.2,1.8c-2.9,0-5.6-0.8-8-2.3
				c-2.4-1.5-4.3-3.5-5.8-6.1c-1.4-2.5-2.2-5.4-2.2-8.5c0-2.3,0.4-4.5,1.2-6.6c0.8-2,2-3.8,3.4-5.4s3.2-2.8,5.1-3.6
				c1.9-0.9,4-1.3,6.2-1.3c2.6,0,5,0.6,7.2,1.8c2.2,1.2,4.1,2.8,5.5,4.9l-4,2.1c-1.1-1.4-2.4-2.5-4-3.2c-1.6-0.8-3.1-1.1-4.8-1.1
				c-2.2,0-4.1,0.6-5.8,1.7c-1.7,1.1-3.1,2.6-4.1,4.5c-1,1.9-1.5,3.9-1.5,6.2c0,2.2,0.5,4.3,1.6,6.2s2.4,3.4,4.2,4.5
				c1.7,1.1,3.7,1.7,5.8,1.7c1.7,0,3.4-0.4,4.9-1.2C339.6,242.4,340.9,241.3,341.9,240z"/>
			<path class="st0" d="M376.2,248h-5.1l-8.9-15.4l-6.4,7.6v7.8h-4.5v-47.9h4.5v33.2l14.4-17.2h5.8L365.2,229L376.2,248z"/>
			<path class="st0" d="M394.2,248.9c-2.9,0-5.6-0.8-8-2.3c-2.4-1.5-4.3-3.5-5.8-6.1c-1.4-2.5-2.2-5.4-2.2-8.5
				c0-2.3,0.4-4.5,1.2-6.6c0.8-2,2-3.8,3.4-5.4c1.5-1.5,3.2-2.8,5.1-3.6c1.9-0.9,4-1.3,6.2-1.3c2.4,0,4.5,0.5,6.5,1.4
				c2,0.9,3.7,2.2,5.1,3.9c1.4,1.7,2.5,3.7,3.3,5.9s1,4.7,0.9,7.3H383c0.3,2,0.9,3.8,1.9,5.4s2.4,2.9,4,3.8c1.6,0.9,3.4,1.4,5.4,1.4
				c2.1,0,4.1-0.6,5.8-1.7c1.7-1.1,3.1-2.6,4.1-4.6l4.5,1.1c-1.3,2.8-3.2,5.2-5.8,7C400.3,248,397.4,248.9,394.2,248.9z
				 M382.9,230.1h22.7c-0.1-2-0.8-3.8-1.8-5.4c-1.1-1.7-2.4-3-4.1-4c-1.7-1-3.5-1.5-5.5-1.5c-2,0-3.8,0.5-5.4,1.5
				c-1.6,1-3,2.3-4,3.9C383.7,226.3,383.1,228.1,382.9,230.1z"/>
			<path class="st0" d="M415.6,248v-32h4.5v4.4c1.1-1.6,2.6-2.9,4.4-3.9c1.8-1,3.8-1.4,5.9-1.4c1.2,0,2.4,0.2,3.6,0.5l-1.8,4.4
				c-0.9-0.3-1.8-0.4-2.6-0.4c-1.7,0-3.3,0.4-4.7,1.3c-1.4,0.9-2.6,2-3.4,3.4c-0.9,1.4-1.3,3-1.3,4.8V248H415.6z"/>
		</g>
	</g>
	<g>
		<path class="st1" d="M118.8,33c-23.2,0-44.1,9.4-59.3,24.6c-5.9,5.9-10.9,12.8-14.9,20.3c-1.7,5.9-2.7,12.1-2.7,18.5
			c0,7,0.8,13.2,2.3,18.9c1.2-27.9,18.9-50.5,41.9-62.3c10-5.1,20.9-8.1,32-8.7c11.1-0.6,22.3,1.4,32.7,6.3
			c19.9,9.5,36.6,30,43.3,64.7c1.5-5.7,2.3-11.9,2.3-18.9c0-5.2-0.6-10.3-1.8-15.2c-4.2-8.8-9.7-16.9-16.6-23.7
			C163,42.3,142,33,118.8,33z"/>
		<path class="st1" d="M118.8,25.9c18.7,0,36.1,5.6,50.6,15.3c-13.8-11.4-31.6-18.4-50.2-18.4c-17.9,0-35,6.4-48.6,17
			C84.6,31.1,101.1,25.9,118.8,25.9z"/>
		<path class="st1" d="M156.1,142.7c-0.3-18.7-4.3-36.5-16-47.1c-0.8-0.7-1.7-1.4-2.5-2.1c-0.8-0.7-1.7-1.2-2.6-1.8
			c-1.7-1-2.2-3.2-1.2-4.8c1-1.7,3.2-2.2,4.8-1.2c1.1,0.7,2.1,1.4,3.2,2.1c1,0.8,2,1.6,3,2.5c13.4,12.2,17.9,31.8,18.2,52.2
			c0.1,7.7-0.4,15.6-1.2,23.2c3.6-4.3,7-8.3,10.4-12.3c0.3-8.1,0.3-15.8-0.3-22.8c-0.7-8.6-2.2-16.3-4.2-23.2
			c-1.4-4.6-3.2-8.8-5.4-12.5C156,84.2,146.8,77,136.5,73.4c-10.3-3.6-21.7-3.7-32.2-0.5c-3.8,1.2-7.5,2.8-11,4.8
			c-1.7,1-3.8,0.4-4.8-1.3c-1-1.7-0.4-3.8,1.3-4.8c3.9-2.3,8.1-4.1,12.5-5.4c11.9-3.6,24.8-3.5,36.6,0.6
			c11.8,4.1,22.4,12.3,29.6,24.8c2.4,4.2,4.4,8.8,6,14c2.2,7.4,3.8,15.6,4.5,24.6c0.4,4.5,0.6,9.1,0.6,14c3.6-4.9,6.9-10,9.5-15.4
			c-4.4-39.8-21-62.4-41.3-72c-9.3-4.4-19.3-6.1-29.3-5.6c-10,0.5-20,3.3-29.2,8c-21.6,11-38.1,32.4-38.2,58.5
			c0,5,0.9,10.1,1.8,15.2c0.2,1.2,0.4,2.5,0.7,3.7c3.1,4.9,6.6,9.6,10.4,14.3c0.1-3.5,0-7.1-0.5-11.1c-2-10-2.4-19.3-1.2-27.7
			c1.2-8.7,4.2-16.5,8.7-23.1c1.1-1.6,3.3-2,4.9-0.9c1.6,1.1,2,3.3,0.9,4.9c-3.9,5.7-6.5,12.5-7.6,20.2c-1.1,7.6-0.7,16,1.1,25.3
			c0,0.2,0.1,0.4,0.1,0.5c0.9,7.4,0.8,13.9-0.1,19.7c2.7,3.2,5.5,6.6,8.4,10c0.7-4.2,1.1-8.8,1.3-13.9c0.2-5.6,0-11.8-0.4-18.4
			c-0.1-1.4-0.2-3.2-0.3-4.9c-0.8-11.2-1.4-20.3,5.1-32c1.4-2.6,3.2-5,5.3-7.2c2.1-2.2,4.5-4.2,7.2-5.9c0.2-0.1,0.4-0.2,0.5-0.3
			c4-1.9,8-3.4,12-4.4c4.1-1,8.2-1.4,12.2-1.2c1.9,0.1,3.4,1.7,3.3,3.7c-0.1,1.9-1.7,3.4-3.7,3.3c-3.3-0.2-6.7,0.2-10.2,1
			c-3.4,0.8-7,2.2-10.5,3.9c-2.2,1.4-4.1,3-5.7,4.7c-1.7,1.8-3.1,3.7-4.2,5.8c-5.5,9.9-5,18-4.3,28c0.1,1.5,0.2,3,0.3,5
			c0.4,6.7,0.5,13.1,0.4,19c-0.2,6-0.7,11.5-1.5,16.3c-0.2,1.4-0.8,3.6-1.1,4.8c3.2,4,5,6.2,8.1,10.8c1.6-4,2.9-8.4,3.7-13
			c1.7-9.2,0.9-21,0.1-32.1c-0.3-3.7-0.5-7.4-0.7-11.2c-0.2-5.5-0.3-10.9,0.7-15.8c1.1-5.3,3.5-10,8.3-13.3c1.1-0.8,2.2-1.4,3.5-2
			c1.3-0.6,2.6-1.1,4.1-1.5c1.1-0.3,2.2-0.6,3.2-0.7c7.2-1.2,12.9,0.6,17.3,4.5c4.2,3.7,7,9,8.8,15.2c0.5,1.8,0.9,3.7,1.3,5.7
			c0.2,1.1,0.3,2.1,0.5,3.2c0.1,1.1,0.2,2.2,0.3,3.3c0.7,11.2,0.3,25.1-1.3,38.7c-1.5,13.1-3.8,25.9-7,36c-0.6,1.8-2.6,2.9-4.4,2.3
			c-1.8-0.6-2.9-2.6-2.3-4.4c3-9.5,5.3-21.9,6.7-34.6c1.5-13.2,1.9-26.7,1.2-37.5c-0.1-0.9-0.1-1.9-0.3-2.9
			c-0.1-0.9-0.3-1.9-0.4-2.8c-0.3-1.7-0.7-3.3-1.1-5c-1.4-4.9-3.6-9.1-6.6-11.8c-2.8-2.5-6.6-3.7-11.5-2.8c-0.8,0.1-1.6,0.3-2.5,0.6
			c-1.1,0.3-2.2,0.7-3.1,1.1c-0.9,0.4-1.7,0.9-2.4,1.4c-3.1,2.2-4.7,5.3-5.4,9c-0.9,4.1-0.8,9-0.5,14c0.1,3.3,0.4,7.1,0.7,11
			c0.8,11.5,1.7,23.7-0.2,33.8c-1,5.4-2.5,10.4-4.4,15.1c-0.5,1.3-1.2,2.4-1.7,3.6c9.5,15.5,17.7,34.7,22.1,60.9
			c6.3-36.8,20-59.9,34.2-78.2C155.1,165.7,156.3,154.1,156.1,142.7z M118.7,187.7l-3.1,13.9c-0.4,1.9-2.3,3.1-4.2,2.7
			c-1.9-0.4-3.1-2.3-2.7-4.2l3.1-13.9c0.4-1.9,2.3-3.1,4.2-2.7C117.9,183.9,119.1,185.8,118.7,187.7z M123.2,175.2
			c-0.3,1.9-2.1,3.2-4,2.9c-1.9-0.3-3.2-2.1-2.9-4c1.5-9.4,2.2-18.9,2.2-28.3c0-9.4-0.9-18.7-2.6-27.9c-0.4-1.9,0.9-3.7,2.8-4.1
			c1.9-0.4,3.7,0.9,4.1,2.8c1.8,9.6,2.6,19.4,2.7,29.2C125.5,155.6,124.7,165.4,123.2,175.2z"/>
	</g>
	<path class="st1" d="M136.5,200"/>
</g>
</svg>
