<?xml version="1.0" encoding="utf-8"?>
<!-- Generator: Adobe Illustrator 26.0.1, SVG Export Plug-In . SVG Version: 6.00 Build 0)  -->
<svg version="1.1" id="danger-icon" xmlns="http://www.w3.org/2000/svg" xmlns:xlink="http://www.w3.org/1999/xlink" x="0px"
	 y="0px" viewBox="0 0 55.7 80.5" style="enable-background:new 0 0 55.7 80.5;" xml:space="preserve">
<style type="text/css">
	.st0{fill-rule:evenodd;clip-rule:evenodd;fill:#E71C32;}
</style>
<path id="Path_49" class="st0" d="M28.1,57.6c2.4-1.3,6.6-3.2,12.6-5.8c0.3-0.1,1.1-0.5,2.3-1c1.7-1.7,3.4-3.3,5.3-4.8
	c0.8-0.8,1.9-1.4,3-1.6c0.7,0,1.3,0.2,1.7,0.7c0.4,0.7,0.6,1.4,0.5,2.2c0,1.2-0.2,2.4-0.4,3.6c1.2,1.2,2,2.7,2.4,4.4
	c0,0.7-0.2,1.3-0.7,1.8c-0.6,0.5-1.3,0.7-2,0.6c-0.7-0.1-1.4-0.3-2-0.7c-0.9-0.5-2.1-1.1-3.5-2c-5.1,1.3-10,3.1-14.6,5.6
	c0.8,0.5,1.4,0.8,1.8,1c2.2,1.2,4.9,2.9,8.2,5c0.4,0.3,1.3,0.8,2.8,1.6c6.7,0.8,10.1,2.4,10.1,5c0,1.7-1.8,2.8-5.4,3.4
	c-1.7,2-3.1,3.1-4.2,3.1c-1.3,0-2.6-1.7-3.9-5.1c-0.2-0.5-0.4-1.1-0.6-1.6c-4.3-3.6-9-6.8-13.9-9.5c-5.1,2.8-9.8,6.2-14,10.1
	c-0.6,4.1-1.8,6.2-3.8,6.2c-1.2,0-2.6-1.2-4.2-3.5c-3.8,0-5.7-1-5.7-3.1c0-1.4,0.8-2.7,2.1-3.3c2.9-1,5.8-1.7,8.9-2
	c3.8-2.7,7.8-5.2,11.9-7.3C18.1,58.1,13,56.2,7.7,55c-0.8,0.7-1.6,1.3-2.5,1.8c-0.7,0.4-1.4,0.6-2.1,0.6c-0.8,0.1-1.5-0.2-2.2-0.6
	c-0.5-0.4-0.8-1.1-0.7-1.8c0.5-1.6,1.3-3,2.4-4.2C2.2,49.7,2,48.6,2,47.4c-0.1-0.9,0.2-1.7,0.7-2.5c0.5-0.5,1.2-0.8,1.9-0.8
	c1.3,0.2,2.4,0.8,3.3,1.6c1.8,1.5,3.4,3.2,4.9,5C18,52.7,23.1,55,28.1,57.6z M34.7,39.7l-1.1,2.8c-1.9,0.5-3.8,0.8-5.7,0.7
	c-1.1,0-2.1-0.1-3.2-0.2c-0.8-0.1-1.7-0.3-2.5-0.5l-1.1-2.8L13.3,36l-0.7-4.6c-0.5-1.8-1.3-3.6-2.4-5.1c-1.4-2.9-1.9-6-1.7-9.1
	c-0.2-4.6,1.8-9,5.4-11.9c3.9-3.2,8.9-4.8,14-4.5c5.1-0.2,10.1,1.4,14,4.5c3.5,3,5.5,7.3,5.4,11.9c0,4.3-1.3,8.6-3.5,12.3
	c-0.3,0.6-0.4,1.3-0.5,2L42.4,36C42.4,36,34.7,39.7,34.7,39.7z M38.3,41l-1.4,5.4l-3.4,2.9c-0.5,1.1-1.3,1.9-2.3,2.5
	c-1.1,0.6-2.3,0.9-3.5,0.9c-2.5,0.1-4.7-1.2-5.8-3.4l-3.4-2.9L17.2,41l2-0.5c0.2,0.6,0.4,1,0.5,1.3c0.5,1.5,1.5,2.8,2.8,3.8
	c1.6,0.7,3.3,1.1,5.1,0.9c1.9,0.1,3.8-0.1,5.5-0.9c1.3-1,2.3-2.3,2.8-3.9c0.1-0.3,0.3-0.7,0.5-1.3L38.3,41L38.3,41z M27.9,30.5
	c-0.6,1-1.3,2-2.1,2.9c-0.7,0.6-1.1,1.4-1.3,2.3c0,0.5,0.2,1,0.5,1.3c0.4,0.3,1,0.5,1.5,0.4c0.5,0,0.9-0.2,1.3-0.4
	c0.4,0.3,0.8,0.4,1.3,0.4c1.4,0,2.1-0.6,2.1-1.8c-0.2-0.9-0.6-1.7-1.3-2.2C29.2,32.5,28.5,31.5,27.9,30.5L27.9,30.5z M15.2,26.1
	c0,3.5,1.5,5.3,4.6,5.3s4.6-1.9,4.6-5.6c0-3.1-1.5-4.7-4.5-4.7c-1.3-0.1-2.6,0.4-3.6,1.3C15.5,23.3,15.1,24.7,15.2,26.1z M31.6,26.1
	c0,3.5,1.5,5.3,4.6,5.3c3.1,0,4.6-1.9,4.6-5.6c0.1-1.3-0.3-2.5-1.1-3.5c-0.9-0.8-2.1-1.3-3.4-1.2C33.2,21,31.6,22.7,31.6,26.1
	L31.6,26.1z"/>
</svg>
