<?xml version="1.0" encoding="utf-8"?>
<!-- Generator: Adobe Illustrator 26.0.1, SVG Export Plug-In . SVG Version: 6.00 Build 0)  -->
<svg version="1.1" id="Group_8" xmlns="http://www.w3.org/2000/svg" xmlns:xlink="http://www.w3.org/1999/xlink" x="0px" y="0px"
	 viewBox="0 0 135.7 203.6" style="enable-background:new 0 0 135.7 203.6;" xml:space="preserve">
<style type="text/css">
	.st0{clip-path:url(#SVGID_00000027596421124352913990000018356927591849548171_);}
	.st1{fill:#DF001A;}
</style>
<g>
	<defs>
		<rect id="SVGID_1_" width="135.7" height="203.6"/>
	</defs>
	<clipPath id="SVGID_00000124856033063303040580000016913266349442949026_">
		<use xlink:href="#SVGID_1_"  style="overflow:visible;"/>
	</clipPath>
	<g id="Group_5" style="clip-path:url(#SVGID_00000124856033063303040580000016913266349442949026_);">
		<path id="Path_25" class="st1" d="M66.2,66.7c0.6,0,1.2-0.2,1.8-0.6c0.5,0.3,1.1,0.5,1.8,0.6c1.9,0,2.8-0.8,2.8-2.5
			c-0.3-1.2-0.9-2.3-1.8-3.1c-1-1.2-2-2.5-2.8-4c-0.8,1.4-1.7,2.7-2.8,4c-0.9,0.8-1.5,1.9-1.8,3.1c0,0.7,0.2,1.4,0.7,1.8
			C64.7,66.5,65.5,66.7,66.2,66.7"/>
		<path id="Path_26" class="st1" d="M79.1,58.3c4.2,0,6.2-2.6,6.2-7.7c0.1-1.7-0.4-3.4-1.5-4.8c-1.2-1.1-2.9-1.7-4.6-1.6
			c-4.3,0-6.4,2.3-6.4,6.9C72.9,55.9,75,58.3,79.1,58.3"/>
		<path id="Path_27" class="st1" d="M57,58.3c4.2,0,6.2-2.6,6.2-7.7c0-4.2-2-6.4-6-6.4c-1.8-0.1-3.5,0.5-4.8,1.7
			c-1.2,1.5-1.7,3.3-1.6,5.2C50.9,55.9,52.9,58.3,57,58.3"/>
		<path id="Path_28" class="st1" d="M67.9,0C32.3,0,0,28.9,0,64.5c0,53,54.1,58.6,67.9,139.1c13.8-80.5,67.9-86.1,67.9-139.1
			C135.7,28.9,103.5,0,67.9,0 M49.1,22.6c5.3-4.3,12-6.5,18.8-6.2c6.8-0.3,13.5,1.9,18.8,6.2c4.8,4,7.4,10,7.2,16.3
			c-0.1,5.9-1.7,11.8-4.8,16.8c-0.4,0.9-0.6,1.8-0.7,2.7l-1,6.3l-10.4,5l-1.5,3.8c-2.5,0.7-5.1,1.1-7.7,1c-1.4,0-2.9-0.1-4.3-0.3
			c-1.1-0.1-2.3-0.4-3.3-0.7l-1.5-3.8l-10.4-5l-1-6.3c-0.7-2.5-1.8-4.9-3.2-7c-1.8-3.9-2.6-8.2-2.3-12.5
			C41.7,32.7,44.3,26.7,49.1,22.6 M82,71.5l-1.9,7.4l-4.5,4c-0.7,1.4-1.8,2.7-3.1,3.5c-1.4,0.8-3,1.2-4.7,1.2
			c-3.3,0.2-6.4-1.7-7.8-4.6l-4.5-4l-1.9-7.4l2.7-0.7c0.3,0.8,0.5,1.3,0.7,1.7c0.7,2.1,2,3.9,3.7,5.2c2.1,1,4.5,1.4,6.8,1.3
			c2.5,0.2,5.1-0.2,7.4-1.2c1.8-1.3,3.1-3.2,3.8-5.3c0.2-0.4,0.4-1,0.7-1.7L82,71.5z M98,120.4c-2.3,2.8-4.2,4.2-5.7,4.2
			c-1.8,0-3.5-2.3-5.2-7c-0.2-0.7-0.5-1.5-0.8-2.2c-5.8-5-12.1-9.3-18.7-13c-6.8,3.9-13.1,8.5-18.9,13.8c-0.8,5.7-2.5,8.5-5.1,8.5
			c-1.6,0-3.5-1.6-5.6-4.8c-5.1,0-7.6-1.4-7.6-4.2c-0.1-1.9,1-3.7,2.8-4.5c3.8-1.4,7.8-2.3,11.9-2.7c5.1-3.7,10.5-7.1,16-10
			c-6.4-3.5-13.2-6.1-20.3-7.7c-1,1-2.2,1.8-3.4,2.5c-0.9,0.5-1.9,0.8-2.9,0.8c-1,0.1-2.1-0.2-2.9-0.8c-0.7-0.6-1.1-1.5-1-2.4
			c0.6-2.2,1.7-4.1,3.3-5.8c-0.4-1.5-0.7-3.1-0.8-4.6C33,79.1,33.3,78,34,77c0.6-0.7,1.6-1.2,2.6-1.1c1.7,0.3,3.2,1,4.4,2.3
			c2.4,2.1,4.6,4.3,6.6,6.8c7,2.6,13.9,5.7,20.5,9.2c3.2-1.8,8.9-4.4,16.9-7.9c0.4-0.2,1.5-0.7,3.1-1.4c2.2-2.4,4.6-4.6,7.2-6.6
			c1.1-1.1,2.5-1.9,4.1-2.2c0.9-0.1,1.7,0.3,2.3,1c0.6,0.9,0.8,1.9,0.7,3c0,1.6-0.2,3.3-0.5,4.9c1.6,1.7,2.7,3.7,3.2,6
			c0.1,0.9-0.3,1.8-0.9,2.5c-0.7,0.6-1.7,0.9-2.7,0.9c-1-0.1-1.9-0.4-2.7-0.9c-1.2-0.6-2.8-1.5-4.6-2.7c-6.9,1.7-13.4,4.3-19.6,7.7
			c1.1,0.6,1.9,1.1,2.4,1.4c3,1.7,6.6,4,11,6.8c0.5,0.4,1.8,1.1,3.7,2.3c9,1,13.5,3.3,13.5,6.9C105.3,118,102.8,119.6,98,120.4"/>
	</g>
</g>
</svg>
